<svg width="220" height="52" viewBox="0 0 220 52" fill="none" xmlns="http://www.w3.org/2000/svg">
<path d="M32.4083 35.5975C32.3948 35.6674 32.3814 35.7373 32.3297 35.9498C32.353 36.1519 32.4145 36.2115 32.5609 36.3085C38.8538 36.346 45.062 36.346 51.41 36.346C51.0547 37.2834 50.7832 37.9997 50.5117 38.716C50.5117 38.716 50.4995 38.6925 50.4383 38.72C50.1838 39.1131 49.9905 39.4786 49.7971 39.8442C49.7971 39.8442 49.7992 39.8171 49.7423 39.8505C49.5705 40.096 49.4556 40.3081 49.3406 40.5202C49.3406 40.5202 49.3352 40.5042 49.2903 40.5337C49.1994 40.6294 49.1533 40.6957 49.1073 40.7619C49.1073 40.7619 49.1102 40.7298 49.052 40.7621C48.7257 41.1616 48.4576 41.5287 48.1895 41.8959C48.1895 41.8959 48.1803 41.8742 48.1368 41.9009C48.0463 41.9946 47.9992 42.0615 47.9522 42.1284C47.9522 42.1284 47.9519 42.0977 47.9095 42.1267C47.8199 42.2245 47.7726 42.2932 47.7253 42.362C47.7253 42.362 47.7232 42.3297 47.6806 42.3569C47.5905 42.4532 47.543 42.5222 47.4955 42.5912C47.4955 42.5912 47.4959 42.5548 47.4511 42.5872C47.3528 42.7426 47.2991 42.8656 47.2455 42.9886C47.2455 42.9886 47.2509 43.0009 47.1626 42.9928C46.9241 42.8764 46.7095 42.8005 46.6341 42.6547C46.0699 41.5638 45.2312 41.5487 44.1798 41.9031C42.5556 42.4505 40.9035 42.92 39.2545 43.3932C38.4715 43.6179 37.6685 43.7748 36.8745 43.9624C36.7569 44.0006 36.6394 44.0389 36.3478 44.0223C34.7218 44.0274 33.2691 44.1488 31.8179 44.1333C29.3247 44.1068 26.8327 43.9701 24.3394 43.9329C23.528 43.9208 23.3168 43.6179 23.5016 42.8894C23.9187 41.2441 24.3399 39.5992 24.717 37.9447C25.0852 36.3289 25.4006 34.7015 25.7392 33.0791C25.7173 33.0055 25.6954 32.9318 25.7643 32.8014C25.855 32.7447 25.9612 32.7405 26.0117 32.7968C26.3304 32.5753 26.5986 32.2975 26.8668 32.0196C26.6451 31.8822 26.4235 31.7449 26.2112 31.5234C26.3693 30.8969 26.518 30.3546 26.7592 29.8049C27.0248 29.5233 27.1967 29.2482 27.3715 28.975C27.6125 28.5984 27.7702 28.0943 28.1148 27.8728C28.9926 27.3083 30.1348 27.7317 30.9759 28.6894C31.3118 29.0718 31.8782 29.2486 32.2724 29.5936C32.5885 29.8702 33.0222 30.2604 33.0209 30.5987C33.0171 31.5455 32.8149 32.4915 32.7033 33.5256C32.7332 33.6696 32.7509 33.726 32.7685 33.7824C32.7521 33.9277 32.7356 34.0729 32.6409 34.327C32.5188 34.5596 32.4748 34.6835 32.3869 34.8412C32.3607 35.0002 32.3784 35.1253 32.3997 35.3084C32.4049 35.4434 32.4066 35.5205 32.4083 35.5975Z" fill="#3885DB"/>
<path d="M11.1064 27.5269C11.6419 28.9807 11.9971 30.5331 12.7501 31.8679C14.3561 34.7148 17.0734 36.0701 20.2301 36.6717C20.4566 36.7149 20.6872 36.7374 20.9132 36.7824C20.984 36.7964 21.046 36.853 21.2409 36.9625C20.7287 39.0817 20.207 41.2402 19.6781 43.4284C19.446 43.4427 19.2924 43.4896 19.161 43.4549C13.0522 41.8421 7.69259 39.0314 3.30315 34.4113C-0.092882 30.8369 -0.335024 26.669 0.244302 22.2199C0.322378 21.6203 0.45523 21.0275 0.647506 20.4225C0.70825 20.9739 0.673571 21.5343 0.66426 22.0951C0.658871 22.4193 0.69436 22.7441 0.711445 23.0686C1.07068 23.0235 1.44026 23.0151 1.78569 22.9209C2.03659 22.8524 2.28376 22.7028 2.48391 22.5335C3.39608 21.7621 4.15017 22.1238 4.7259 22.9135C5.06392 23.3772 5.29269 23.9698 5.39914 24.5357C5.69223 26.0937 6.89815 26.9067 8.28354 26.4641C8.75379 26.3138 9.29127 26.3676 9.79803 26.3282C9.82735 26.8301 9.95569 27.3503 9.86462 27.83C9.69402 28.729 10.1951 28.8732 10.6915 29.0507C10.8645 28.4154 10.9855 27.9711 11.1064 27.5269Z" fill="#1054B4"/>
<path d="M32.6912 33.4378C32.8151 32.4914 33.0173 31.5454 33.0211 30.5986C33.0224 30.2603 32.5887 29.8701 32.2726 29.5935C31.8784 29.2485 31.312 29.0717 30.9761 28.6893C30.135 27.7316 28.9928 27.3082 28.115 27.8726C27.7704 28.0942 27.6127 28.5983 27.3717 28.9749C27.1969 29.2481 27.025 29.5232 26.768 29.7137C26.9358 28.7253 27.2269 27.8292 27.43 26.9141C27.7468 25.4864 28.0039 24.0458 28.2863 22.6107C28.7074 20.6761 29.0984 18.7346 29.5569 16.8086C30.1599 14.276 30.8159 11.7556 31.5496 9.15698C31.6501 9.08401 31.7623 9.08416 31.76 9.17742C31.6075 10.0473 31.4002 10.8189 31.3285 11.6025C31.2858 12.0689 31.4562 12.5542 31.5308 13.031C31.9614 12.8839 32.391 12.7334 32.824 12.5932C32.8902 12.5718 32.9724 12.5981 33.2045 12.6112C33.2464 12.8987 33.2926 13.2151 33.3459 13.5807C30.5563 13.1759 29.8866 15.2682 30.3807 16.9727C30.4348 17.1595 30.6093 17.4371 30.7539 17.4536C31.6604 17.5574 32.5772 17.6752 33.485 17.6413C34.5469 17.6017 35.603 17.4121 36.6616 17.2875C36.6616 17.2875 36.6672 17.4004 36.5949 17.4802C36.5272 17.6887 36.5317 17.8176 36.5363 17.9464C36.3388 18.8088 36.1413 19.6711 35.8888 20.6318C35.776 20.7967 35.7862 20.855 35.8644 20.9048C36.7574 21.0307 37.6503 21.1566 38.5992 21.3633C38.5171 21.5727 38.3791 21.7011 38.1655 21.863C37.321 22.2448 37.4114 22.8248 37.8784 23.2577C38.4452 23.7831 39.1836 24.1244 39.7956 24.6092C40.0982 24.849 40.4498 25.2126 40.4911 25.554C40.6114 26.5477 40.8171 27.6319 39.5586 28.1955C39.4059 28.2639 39.3441 28.5294 39.1311 28.8864C40.8864 28.8864 42.4507 28.8864 44.0595 28.9098C44.143 29.0195 44.1821 29.1058 44.2212 29.192C41.3504 29.2236 38.4796 29.2546 35.6088 29.2873C35.149 29.2925 34.6893 29.3048 34.0648 29.3826C33.7974 29.8522 33.6947 30.2531 33.592 30.6539C33.5278 30.9474 33.4636 31.2409 33.3765 31.6208C33.3536 31.7073 33.3464 31.705 33.3464 31.705C33.3218 31.8535 33.2971 32.002 33.1988 32.2813C33.1077 32.52 33.0902 32.6279 33.0728 32.7358C33.0531 32.8579 33.0335 32.98 32.9478 33.2133C32.8291 33.3801 32.7656 33.4179 32.6912 33.4378Z" fill="#438DDD"/>
<path d="M151.96 21.4877C151.24 21.4873 150.636 21.4873 149.98 21.4873C149.98 22.911 149.98 24.1799 149.98 25.5959C152.177 25.5959 154.317 25.5959 156.464 25.5959C156.464 26.4463 156.464 27.1481 156.464 27.9324C154.28 27.9324 152.175 27.9324 149.976 27.9324C149.976 29.4305 149.976 30.8482 149.976 32.3729C152.428 32.3729 154.909 32.3729 157.468 32.3729C157.468 33.2493 157.468 34.0213 157.468 34.8762C153.884 34.8762 150.327 34.8762 146.71 34.8762C146.71 29.5909 146.71 24.3712 146.71 19.0722C150.215 19.0722 153.7 19.0722 157.252 19.0722C157.252 19.8347 157.252 20.5747 157.252 21.488C155.515 21.488 153.796 21.488 151.96 21.4877Z" fill="#444953"/>
<path d="M130.64 37.5226C131.539 37.5516 132.365 37.6942 133.134 37.5458C134.996 37.1863 135.778 35.8201 135.349 33.9181C132.378 35.4682 129.586 35.1906 127.949 33.1823C126.328 31.1927 126.501 27.6199 128.316 25.6C130.027 23.6959 132.788 23.4811 135.471 25.0602C136.124 23.7058 137.321 24.6215 138.297 24.3141C138.297 28.0422 138.424 31.6731 138.253 35.2903C138.137 37.7464 136.483 39.1681 133.971 39.6209C131.928 39.9892 130.022 39.6406 128.112 38.8146C128.344 38.1778 128.548 37.6181 128.779 36.9856C129.388 37.1646 129.965 37.3342 130.64 37.5226ZM134.497 32.3517C135.967 31.3039 135.494 29.7606 135.495 28.3693C135.496 27.0095 134.639 26.2141 133.259 26.1132C131.835 26.0091 130.878 26.5243 130.346 27.681C129.682 29.126 129.909 31.2895 130.913 32.1737C131.953 33.0909 133.146 33.0405 134.497 32.3517Z" fill="#444953"/>
<path d="M182.693 35.4918C182.053 38.3091 180.39 39.6659 177.182 39.7184C175.651 39.7434 174.113 39.3308 172.438 39.0968C172.738 38.1897 172.934 37.5978 173.128 37.0113C178.185 38.2826 180.112 37.3828 179.861 33.7963C178.324 34.9517 176.609 35.3393 174.863 34.722C173.901 34.3819 172.908 33.749 172.269 32.976C170.657 31.029 170.997 27.5204 172.801 25.5114C174.416 23.7125 177.156 23.5411 179.961 25.0632C180.403 24.2575 180.445 24.2477 182.703 24.439C182.703 28.0865 182.703 31.741 182.693 35.4918ZM176.679 32.7998C178.981 32.9362 179.952 32.0436 179.945 29.7926C179.944 29.3007 179.947 28.8075 179.913 28.3173C179.826 27.0563 178.998 26.2264 177.723 26.0966C176.045 25.9256 174.981 26.7143 174.543 28.3795C174.079 30.1485 174.73 32.5029 176.679 32.7998Z" fill="#444953"/>
<path d="M201.208 39.7604C199.765 39.5142 198.429 39.268 196.972 38.9997C197.253 38.1279 197.444 37.5327 197.636 36.9388C202.571 38.4137 204.76 37.401 204.347 33.9051C201.138 35.4406 198.49 35.1839 196.961 33.1891C195.321 31.0488 195.526 27.5029 197.406 25.5064C199.085 23.7228 201.889 23.5388 204.373 25.0492C204.863 24.2362 204.936 24.22 207.28 24.4298C207.308 24.6993 207.364 24.9869 207.365 25.2745C207.366 28.0792 207.377 30.8841 207.35 33.6886C207.31 37.8383 205.581 39.5645 201.208 39.7604ZM201.579 32.8225C203.726 32.7561 204.45 32.016 204.446 29.8885C204.445 29.4717 204.446 29.0547 204.436 28.638C204.402 27.1519 203.77 26.3557 202.458 26.1404C200.958 25.894 199.734 26.4665 199.353 27.835C199.098 28.7529 199.046 29.7815 199.162 30.73C199.307 31.9199 200.06 32.7173 201.579 32.8225Z" fill="#444953"/>
<path d="M13.0183 3.78274C14.7853 3.04309 16.5314 2.24885 18.3265 1.58269C19.5523 1.12784 20.8464 0.851771 22.2393 0.568314C22.4031 0.707142 22.4482 0.77014 22.4706 0.84019C23.1387 2.92626 23.9342 4.90429 26.4504 5.43892C24.3437 6.41009 22.0676 7.13904 20.1779 8.42054C18.2857 9.70375 16.7793 11.5389 14.952 13.1719C14.5118 13.3418 14.2232 13.4718 13.9179 13.6094C13.4006 11.4683 13.3598 11.5228 12.3621 10.7996C11.5494 10.2104 10.7994 9.5157 10.1138 8.78394C9.45262 8.07817 9.69253 6.66709 10.5416 6.49743C11.7387 6.25821 11.7615 5.57939 11.5939 4.68633C11.5939 4.68633 11.6126 4.69083 11.7029 4.71443C12.4612 4.7426 13.0888 4.69688 13.0183 3.78274Z" fill="#236CCA"/>
<path d="M11.1184 27.4293C10.9855 27.9711 10.8645 28.4154 10.6915 29.0507C10.1951 28.8731 9.69407 28.7289 9.86467 27.83C9.95574 27.3502 9.8274 26.8301 9.79808 26.3281C9.29132 26.3676 8.75384 26.3138 8.28359 26.464C6.8982 26.9067 5.69227 26.0937 5.39919 24.5356C5.29274 23.9698 5.06397 23.3772 4.72595 22.9135C4.15022 22.1237 3.39613 21.7621 2.48395 22.5335C2.28381 22.7027 2.03664 22.8524 1.78574 22.9208C1.44031 23.015 1.07073 23.0234 0.711494 23.0686C0.694409 22.7441 0.658919 22.4192 0.664309 22.0951C0.67362 21.5343 0.708299 20.9738 0.685133 20.339C1.14899 17.6996 2.10361 15.303 3.58064 13.0717C3.70113 14.2046 4.18138 14.7417 5.40466 14.8211C6.28728 14.8784 7.1916 15.2202 8.00246 15.6059C9.39659 16.269 10.7111 17.0092 12.2328 15.8899C12.4868 15.7031 12.9561 15.8003 13.326 15.7663C11.6188 19.4419 10.6103 23.2462 11.1184 27.4293Z" fill="#175DBD"/>
<path d="M73.6252 35.2657C68.911 35.3492 65.5985 33.1653 64.6274 29.4067C63.6752 25.7211 64.834 21.9397 67.5252 19.9509C70.3947 17.8303 74.9934 17.6714 78.2937 19.6367C78.0184 20.3027 77.736 20.9857 77.4098 21.7747C75.4865 20.7351 73.4831 20.1156 71.4488 20.9864C70.4851 21.399 69.5594 22.1922 68.9441 23.0428C67.3208 25.2867 67.6124 29.095 69.3829 31.1282C71.3148 33.3467 73.6119 33.5127 77.6377 31.6806C77.9043 32.3394 78.1693 32.9943 78.457 33.705C77.0609 34.8207 75.4237 35.1217 73.6252 35.2657Z" fill="#444953"/>
<path d="M86.0223 26.097C88.0326 23.845 90.5303 23.6017 93.1566 24.334C95.6127 25.0189 97.0668 27.4656 96.8363 30.114C96.6068 32.7512 94.9511 34.6645 92.3635 35.0022C91.1746 35.1574 89.8766 35.156 88.7301 34.8522C84.8563 33.8257 83.5436 29.5372 86.0223 26.097ZM93.2716 27.4562C92.6087 26.2457 91.5104 25.9223 90.2368 26.111C88.9751 26.298 88.2224 27.1598 88.0925 28.3308C87.9791 29.3525 88.0372 30.4498 88.3022 31.4403C88.6263 32.6513 89.7094 33.2207 90.9765 33.1615C92.2301 33.1031 93.2881 32.4107 93.4532 31.1788C93.6091 30.0152 93.4027 28.8045 93.2716 27.4562Z" fill="#464B55"/>
<path d="M217.847 24.7722C219.8 26.1515 220.157 28.0312 219.947 30.234C217.376 30.234 214.881 30.234 212.379 30.234C212.61 33.0676 214.564 33.6588 218.952 32.2356C219.202 32.7831 219.459 33.3437 219.748 33.9752C217.14 35.3554 214.552 35.679 211.914 34.4901C209.807 33.5402 208.77 31.2238 209.175 28.7357C209.574 26.2851 211.366 24.4658 213.759 24.0969C215.165 23.8802 216.525 23.9721 217.847 24.7722ZM216.929 27.2332C216.152 26.0818 215.303 25.7479 214.109 26.1238C212.99 26.476 212.431 27.2632 212.44 28.4888C213.994 28.4888 215.547 28.4888 217.189 28.4888C217.112 28.0562 217.054 27.728 216.929 27.2332Z" fill="#464B55"/>
<path d="M124.767 25.8902C124.939 28.9046 125.077 31.8368 125.218 34.8578C124.065 34.8578 123.166 34.8578 122.115 34.8578C122.115 32.7134 122.117 30.6033 122.114 28.4933C122.112 27.6805 122.076 26.8482 121.189 26.4558C120.237 26.035 119.257 26.1051 118.498 26.8188C118.133 27.1624 117.844 27.7627 117.827 28.2567C117.756 30.41 117.797 32.5669 117.797 34.8286C116.794 34.8286 115.9 34.8286 114.896 34.8286C114.896 31.4033 114.896 27.949 114.896 24.4185C115.732 24.4185 116.523 24.4185 117.413 24.4185C117.497 24.6773 117.597 24.9852 117.713 25.341C120.189 23.9976 122.63 22.7328 124.767 25.8902Z" fill="#474D57"/>
<path d="M162.18 32.9537C162.18 33.6261 162.18 34.1899 162.18 34.8478C161.168 34.8478 160.24 34.8478 159.232 34.8478C159.232 31.3667 159.232 27.9386 159.232 24.4272C160.083 24.4272 160.911 24.4272 161.815 24.4272C161.909 24.7201 162.019 25.0623 162.082 25.2567C163.138 24.8367 164.119 24.2627 165.172 24.0636C167.712 23.5839 169.417 24.9399 169.501 27.4679C169.582 29.8877 169.519 32.3122 169.519 34.8367C168.532 34.8367 167.636 34.8367 166.541 34.8367C166.541 32.7314 166.612 30.6212 166.501 28.5204C166.463 27.8161 166.149 26.8912 165.627 26.5009C164.824 25.9 163.737 26.1137 162.958 26.7825C162.579 27.108 162.262 27.698 162.231 28.1873C162.135 29.735 162.187 31.2918 162.18 32.9537Z" fill="#474D57"/>
<path d="M184.492 32.0989C184.545 30.5439 185.431 29.6833 186.759 29.3451C188.198 28.9787 189.687 28.8059 191.178 28.5446C191.535 26.105 189.947 25.5794 185.97 26.9822C185.717 26.4291 185.458 25.8645 185.155 25.2048C187.372 24.0647 189.598 23.5344 191.957 24.3891C193.582 24.9774 194.122 26.3509 194.143 27.9372C194.173 30.2092 194.151 32.4819 194.151 34.7592C192.353 35.2602 191.645 35.0638 191.367 33.9768C188.064 36.1633 184.908 35.3413 184.492 32.0989ZM189.859 30.3057C189.448 30.3862 189.028 30.4351 188.628 30.5541C187.83 30.792 187.416 31.3332 187.538 32.1663C187.662 33.0156 188.324 33.2045 189.056 33.2202C190.736 33.2562 191.489 32.2358 191.163 30.2889C190.805 30.2889 190.433 30.2889 189.859 30.3057Z" fill="#464B55"/>
<path d="M26.507 5.44971C23.9343 4.90425 23.1388 2.92622 22.4707 0.84015C22.4482 0.7701 22.4031 0.707102 22.3308 0.572248C25.4961 -0.274124 28.7108 -0.0701017 31.9124 0.465537C35.087 0.996694 38.0796 2.07528 40.8909 3.62632C41.3487 3.87894 41.7771 4.18353 42.1961 4.56955C37.2655 4.06644 32.387 4.10381 27.4179 5.15424C27.1317 5.15874 26.9871 5.22203 26.8425 5.28532C26.7495 5.34373 26.6565 5.40214 26.507 5.44971Z" fill="#3885DB"/>
<path d="M13.3232 15.7581C12.956 15.8003 12.4866 15.7031 12.2326 15.8899C10.711 17.0092 9.39641 16.269 8.00228 15.6059C7.19142 15.2201 6.2871 14.8783 5.40448 14.8211C4.1812 14.7417 3.70095 14.2045 3.64066 13.0222C5.50746 9.57132 8.09284 6.79076 11.5153 4.69828C11.7619 5.5793 11.739 6.25812 10.5419 6.49734C9.69284 6.667 9.45294 8.07808 10.1141 8.78385C10.7997 9.51561 11.5497 10.2103 12.3625 10.7995C13.3601 11.5227 13.4009 11.4682 13.9182 13.6093C14.2235 13.4717 14.5121 13.3417 14.8896 13.2087C14.5288 13.9246 14.0789 14.6436 13.5157 15.4419C13.3703 15.5942 13.3383 15.6672 13.3063 15.7401C13.3063 15.7401 13.3205 15.7499 13.3232 15.7581Z" fill="#1E64C3"/>
<path d="M99.9338 24.7558C102.317 23.6691 104.943 23.7732 107.023 25.0329C106.813 25.5695 106.597 26.1186 106.415 26.5831C105.3 26.3616 104.301 26.0856 103.284 25.9872C102.558 25.917 101.695 26.045 101.554 26.9446C101.415 27.8288 102.223 28.0142 102.888 28.2317C103.799 28.5299 104.729 28.7867 105.614 29.1487C106.765 29.6195 107.53 30.4531 107.518 31.7469C107.505 33.0833 106.848 34.1052 105.597 34.6125C103.132 35.612 100.721 35.33 98.2742 34.1465C98.4853 33.5246 98.6756 32.9639 98.8761 32.3732C99.78 32.6341 100.606 32.9175 101.454 33.1002C101.971 33.2115 102.563 33.3007 103.046 33.1557C103.525 33.012 103.909 32.562 104.335 32.2464C104.008 31.8384 103.765 31.2653 103.338 31.0568C102.449 30.6229 101.439 30.4366 100.521 30.0516C97.9464 28.9715 97.6524 26.5309 99.9338 24.7558Z" fill="#464B55"/>
<path d="M37.1806 15.8729C37.4177 15.7461 37.7604 15.4808 38.1076 15.4749C40.3365 15.4368 42.5665 15.4556 44.7961 15.4557C45.1689 15.4557 45.5417 15.4557 45.9145 15.4557C45.9337 15.3512 45.953 15.2468 45.9722 15.1423C45.3238 14.9686 44.6783 14.7835 44.0261 14.6247C43.5065 14.4982 42.6969 14.572 42.5074 14.2638C41.9364 13.3355 41.3674 12.3446 41.828 11.1123C42.004 10.6413 41.8877 9.99534 41.7265 9.48348C41.1324 7.59702 39.5358 7.61439 37.873 7.61091C40.3751 7.53913 42.9526 7.51149 45.5302 7.50569C45.7824 7.50512 46.1146 7.5615 46.2752 7.72199C48.5277 9.97331 50.4041 12.4815 51.8072 15.6312C51.0737 15.705 50.5328 15.8036 49.9912 15.8069C45.757 15.833 41.5226 15.8408 37.1806 15.8729Z" fill="#559CE4"/>
<path d="M6.6404 40.685C10.3229 43.1419 14.2378 45.0762 18.5451 46.2909C22.3046 47.351 26.106 47.4344 30.0107 47.4006C30.0191 47.5817 29.9661 47.6818 29.8048 47.7819C27.7118 47.708 25.7274 47.6235 23.7422 47.5647C22.8612 47.5386 21.9741 47.5128 21.0984 47.5861C20.577 47.6297 19.8466 47.8379 20.4583 48.5595C21.872 50.2273 23.5838 51.4553 25.9216 51.4148C27.6385 51.385 29.3539 51.2713 31.1567 51.1945C31.7206 51.1765 32.1977 51.1589 32.6748 51.1413C27.9868 52.1751 23.3542 51.8962 18.8043 50.4537C17.2749 49.9688 15.8208 49.2535 14.2435 48.5206C13.7625 48.2188 13.3702 48.0399 12.978 47.8611C12.978 47.8611 13.036 47.7986 12.9909 47.7494C12.5783 47.5154 12.2109 47.3306 11.8435 47.1458C11.8435 47.1458 11.8731 47.0999 11.8373 47.0625C11.6407 46.9626 11.4799 46.8999 11.3191 46.8373C11.3191 46.8373 11.2515 46.8327 11.2158 46.7469C11.0104 46.5739 10.8408 46.4867 10.6711 46.3995C10.6288 46.3827 10.5864 46.366 10.4821 46.2374C10.3469 46.095 10.2736 46.0644 10.2003 46.0339C10.2003 46.0339 10.2402 45.9601 10.2071 45.9191C9.88209 45.6962 9.59021 45.5144 9.29834 45.3326C9.29834 45.3326 9.33632 45.2928 9.29666 45.2531C9.1854 45.1844 9.1138 45.1555 9.04221 45.1266C9.04221 45.1266 9.09459 45.0604 9.05543 45.031C8.94372 44.9746 8.87116 44.9475 8.7986 44.9205C8.7986 44.9205 8.83067 44.8786 8.8072 44.8157C8.01739 44.0532 7.25105 43.3536 6.48471 42.6539C6.48471 42.6539 6.47073 42.6364 6.46716 42.5705C6.39976 42.4688 6.33593 42.4329 6.27209 42.397C6.27209 42.397 6.26404 42.3842 6.27119 42.2989C5.77758 41.4854 5.2575 40.7687 4.79223 40.0191C4.69839 39.8679 4.81226 39.5917 4.83037 39.3731C4.98223 39.4968 5.13409 39.6205 5.38687 39.8222C5.56183 39.9177 5.63588 39.9351 5.70994 39.9525C5.70994 39.9525 5.69674 39.9813 5.71901 40.0525C6.04099 40.3108 6.34069 40.4979 6.6404 40.685Z" fill="#0E4FA9"/>
<path d="M79.8901 20.6976C79.8898 19.7595 79.8898 18.9341 79.8898 18.0363C80.9041 18.0363 81.8068 18.0363 82.7889 18.0363C82.7889 23.6086 82.7889 29.186 82.7889 34.8561C81.8947 34.8561 81.0003 34.8561 79.8905 34.8561C79.8905 30.1671 79.8905 25.4887 79.8901 20.6976Z" fill="#474D57"/>
<path d="M32.7686 51.1497C32.198 51.1589 31.7209 51.1765 31.1477 51.113C30.6722 49.9486 30.2928 48.8652 29.9134 47.7818C29.9665 47.6817 30.0195 47.5817 30.0916 47.4436C31.6105 47.1551 33.1276 46.9768 34.6057 46.6349C36.2368 46.2576 37.8322 45.7303 39.534 45.3582C39.4568 46.4934 39.9212 47.0936 40.9635 47.2732C41.2994 47.331 41.6407 47.358 41.9794 47.3991C39.2118 49.291 36.1403 50.4678 32.7686 51.1497Z" fill="#175DBD"/>
<path d="M24.609 8.68881C25.8421 8.34573 27.0752 8.00264 28.6411 7.56694C28.0863 9.73003 27.6075 11.5965 26.9926 13.5791C26.8052 14.0264 26.7541 14.3576 26.7029 14.6887C26.7029 14.6887 26.7539 14.7059 26.636 14.7373C25.9073 14.7704 25.2964 14.781 24.6858 14.7718C23.4038 14.7525 21.9335 15.2021 21.3151 13.4852C21.2928 13.4232 21.2127 13.3698 21.1471 13.3362C20.3227 12.9148 19.9828 12.4754 20.7795 11.6326C21.1862 11.2024 21.3065 10.5095 21.5562 9.93531C21.5562 9.93531 21.5716 9.95132 21.6534 9.96477C21.9873 9.81657 22.2393 9.65491 22.4913 9.49324C22.4913 9.49324 22.504 9.50798 22.5712 9.5102C22.7594 9.43434 22.8805 9.35627 23.0016 9.2782C23.0016 9.2782 23.0476 9.25929 23.1319 9.26206C23.2913 9.20704 23.3664 9.14926 23.4416 9.09148C23.4416 9.09148 23.4887 9.03749 23.6157 9.05188C24.0315 8.94045 24.3203 8.81464 24.609 8.68881Z" fill="#236CCA"/>
<path d="M111.841 34.9348C111.089 34.9333 110.436 34.9295 109.784 34.9201C109.709 34.919 109.635 34.887 109.468 34.8471C109.468 31.4135 109.468 27.9572 109.468 24.4162C110.364 24.4162 111.266 24.4162 112.327 24.4162C112.327 25.5542 112.328 26.7137 112.327 27.8732C112.325 29.8772 112.339 31.8816 112.302 33.885C112.295 34.2357 112.067 34.5823 111.841 34.9348Z" fill="#444953"/>
</svg>
